<?xml version="1.0" encoding="UTF-8" standalone="no"?>
<!DOCTYPE svg PUBLIC "-//W3C//DTD SVG 1.1//EN" "http://www.w3.org/Graphics/SVG/1.1/DTD/svg11.dtd">
<svg width="100%" height="100%" viewBox="0 0 168 168" version="1.1" xmlns="http://www.w3.org/2000/svg"
     style="fill-rule:evenodd;clip-rule:evenodd;stroke-linecap:round;stroke-linejoin:round;stroke-miterlimit:1.5;">
    <circle cx="84" cy="84" r="65" style="fill:none;stroke:#333;stroke-width:3.5px;"/>
    <circle cx="84" cy="84" r="75" style="fill:none;stroke:#333;stroke-width:4.5px;"/>
    <g id="Network"><circle cx="58.56" cy="36.36" r="3.6" style="fill:#333;stroke:#333;stroke-width:1px;"/>
        <circle cx="58.56" cy="59.64" r="3.6" style="fill:#333;stroke:#333;stroke-width:1px;"/>
        <circle cx="58.56" cy="107.523" r="3.6" style="fill:#333;stroke:#333;stroke-width:1px;"/>
        <circle cx="116.16" cy="107.523" r="3.6" style="fill:#333;stroke:#333;stroke-width:1px;"/>
        <circle cx="116.16" cy="59.64" r="3.6" style="fill:#333;stroke:#333;stroke-width:1px;"/>
        <circle cx="58.56" cy="131.64" r="3.6" style="fill:#333;stroke:#333;stroke-width:1px;"/>
        <path d="M58.597,36.408l57.405,23.022" style="fill:none;stroke:#333;stroke-width:4.5px;"/>
        <path d="M58.467,108.048l0.093,23.431" style="fill:none;stroke:#333;stroke-width:4.5px;"/>
        <path d="M58.56,61.836l-0,43.879" style="fill:none;stroke:#333;stroke-width:4.5px;"/>
        <path d="M116.148,107.752l-57.569,-0" style="fill:none;stroke:#333;stroke-width:4.5px;"/>
        <path d="M58.56,37.533l-0,20.182" style="fill:none;stroke:#333;stroke-width:4.5px;"/>
        <path d="M116.16,61.836l-0,43.879" style="fill:none;stroke:#333;stroke-width:4.5px;"/>
        <path d="M116.343,59.933l-57.546,47.818" style="fill:none;stroke:#333;stroke-width:4.5px;"/>
        <path d="M58.797,60.118l57.36,47.633" style="fill:none;stroke:#333;stroke-width:4.5px;"/>
        <path id="bbp" d="M58.739,131.604l57.346,-23.553" style="fill:none;stroke:#333;stroke-width:4.5px;"/>
        <path id="tbp" d="M116.148,59.776l-57.569,-0" style="fill:none;stroke:#333;stroke-width:4.5px;"/>
    </g>
</svg>
